<svg xmlns="http://www.w3.org/2000/svg" xmlns:xlink="http://www.w3.org/1999/xlink" width="1587" zoomAndPan="magnify" viewBox="0 0 1190.25 1683.749949" height="2245" preserveAspectRatio="xMidYMid meet" version="1.0"><defs><filter x="0%" y="0%" width="100%" height="100%" id="0c7fdd0d4f"><feColorMatrix values="0 0 0 0 1 0 0 0 0 1 0 0 0 0 1 0 0 0 1 0" color-interpolation-filters="sRGB"/></filter><clipPath id="d2aabab218"><path d="M 0 0.40625 L 1189.5 0.40625 L 1189.5 1683.09375 L 0 1683.09375 Z M 0 0.40625 " clip-rule="nonzero"/></clipPath><clipPath id="8c711d992b"><path d="M 0 0.40625 L 1189.199219 0.40625 L 1189.199219 1682.667969 L 0 1682.667969 Z M 0 0.40625 " clip-rule="nonzero"/></clipPath><clipPath id="e17f60e5c9"><path d="M 37 0.40625 L 1153 0.40625 L 1153 1683.09375 L 37 1683.09375 Z M 37 0.40625 " clip-rule="nonzero"/></clipPath><mask id="3c1d822e0e"><g filter="url(#0c7fdd0d4f)"><rect x="-261.855" width="1713.96" fill="#000000" y="-370.424989" height="2424.599927" fill-opacity="0.3"/></g></mask><clipPath id="881ac8c6e2"><path d="M 0.683594 540 L 381 540 L 381 780 L 0.683594 780 Z M 0.683594 540 " clip-rule="nonzero"/></clipPath><clipPath id="50ddeeb551"><path d="M 717 590 L 1114.949219 590 L 1114.949219 826 L 717 826 Z M 717 590 " clip-rule="nonzero"/></clipPath><clipPath id="b2fb9740c4"><path d="M 515 0.40625 L 756 0.40625 L 756 377 L 515 377 Z M 515 0.40625 " clip-rule="nonzero"/></clipPath><clipPath id="f0f7bd348e"><path d="M 517 241 L 681 241 L 681 1683.09375 L 517 1683.09375 Z M 517 241 " clip-rule="nonzero"/></clipPath><clipPath id="45d9c924ee"><rect x="0" width="1116" y="0" height="1684"/></clipPath><clipPath id="64431e7468"><rect x="0" width="1190" y="0" height="1684"/></clipPath></defs><g clip-path="url(#d2aabab218)"><path fill="#ffffff" d="M 0 0.40625 L 1189.5 0.40625 L 1189.5 1683.09375 L 0 1683.09375 Z M 0 0.40625 " fill-opacity="1" fill-rule="nonzero"/><g transform="matrix(1, 0, 0, 1, 0, 0.000000000000081102)"><g clip-path="url(#64431e7468)"><g clip-path="url(#8c711d992b)"><path fill="#ffffff" d="M 0 0.40625 L 1189.199219 0.40625 L 1189.199219 1682.667969 L 0 1682.667969 Z M 0 0.40625 " fill-opacity="1" fill-rule="nonzero"/></g><g clip-path="url(#e17f60e5c9)"><g mask="url(#3c1d822e0e)"><g transform="matrix(1, 0, 0, 1, 37, 0.000000000000081102)"><g clip-path="url(#45d9c924ee)"><g clip-path="url(#881ac8c6e2)"><path fill="#d9d9d9" d="M 156.074219 772.125 C 51.117188 739.808594 0.730469 601.261719 0.730469 601.261719 C 0.730469 601.261719 120.5625 515.25 225.414062 547.648438 C 330.351562 580.070312 380.683594 718.667969 380.683594 718.667969 C 380.683594 718.667969 261.035156 804.726562 156.074219 772.125 " fill-opacity="1" fill-rule="nonzero"/></g><path fill="#d9d9d9" d="M 232.90625 1121.914062 C 137.585938 1067.300781 118.824219 921.097656 118.824219 921.097656 C 118.824219 921.097656 254.621094 863.46875 349.820312 918.078125 C 445.085938 972.738281 463.757812 1119.015625 463.757812 1119.015625 C 463.757812 1119.015625 328.15625 1176.695312 232.90625 1121.914062 " fill-opacity="1" fill-rule="nonzero"/><path fill="#d9d9d9" d="M 242.683594 321.683594 C 241.980469 211.867188 358.957031 122.148438 358.957031 122.148438 C 358.957031 122.148438 477.03125 210.574219 477.625 320.320312 C 478.273438 430.15625 361.230469 519.800781 361.230469 519.800781 C 361.230469 519.800781 243.183594 431.597656 242.683594 321.683594 " fill-opacity="1" fill-rule="nonzero"/><path fill="#d9d9d9" d="M 720.519531 381.671875 C 777.585938 287.882812 924.246094 272.925781 924.246094 272.925781 C 924.246094 272.925781 978.273438 410.175781 921.171875 503.914062 C 864.046875 597.703125 717.363281 612.5625 717.363281 612.5625 C 717.363281 612.5625 663.222656 475.5 720.519531 381.671875 " fill-opacity="1" fill-rule="nonzero"/><g clip-path="url(#50ddeeb551)"><path fill="#d9d9d9" d="M 922.058594 590.222656 C 1031.738281 595.671875 1114.761719 717.472656 1114.761719 717.472656 C 1114.761719 717.472656 1019.816406 830.417969 910.226562 824.847656 C 800.554688 819.328125 717.597656 697.445312 717.597656 697.445312 C 717.597656 697.445312 812.28125 584.546875 922.058594 590.222656 " fill-opacity="1" fill-rule="nonzero"/></g><g clip-path="url(#b2fb9740c4)"><path fill="#d9d9d9" d="M 524.328125 150.714844 C 559.699219 46.726562 699.632812 0.386719 699.632812 0.386719 C 699.632812 0.386719 782.144531 122.636719 746.6875 226.523438 C 711.273438 330.492188 571.269531 376.777344 571.269531 376.777344 C 571.269531 376.777344 488.726562 254.699219 524.328125 150.714844 " fill-opacity="1" fill-rule="nonzero"/></g><g clip-path="url(#f0f7bd348e)"><path fill="#d9d9d9" d="M 599.238281 241.578125 C 594.449219 241.578125 559.859375 419.433594 576.042969 626.5 C 584.613281 833.523438 643.992188 1069.835938 652.238281 1186.699219 C 689.0625 1352.46875 672.800781 1849.339844 680.082031 1849.339844 C 626.207031 1849.339844 572.292969 1849.339844 518.414062 1849.339844 C 511.105469 1849.339844 589.378906 1352.890625 573.332031 1187.320312 C 579.714844 1070.363281 540.046875 833.933594 547.511719 626.746094 C 547.402344 419.519531 594.449219 241.578125 599.238281 241.578125 " fill-opacity="1" fill-rule="nonzero"/></g><path fill="#d9d9d9" d="M 438.554688 732.496094 C 360.027344 621.566406 361.050781 508.96875 377.777344 410.089844 C 345.738281 504.285156 336.082031 600.382812 391.207031 721.398438 C 411.339844 720.777344 419.40625 735.179688 438.554688 732.496094 " fill-opacity="1" fill-rule="nonzero"/><path fill="#d9d9d9" d="M 575.582031 1353.710938 C 553.488281 1218.683594 471.117188 1114.839844 386.394531 1057.089844 C 479.933594 1101.027344 567.199219 1190.925781 614.640625 1317.554688 C 598.460938 1330.761719 592.464844 1342.796875 575.582031 1353.710938 " fill-opacity="1" fill-rule="nonzero"/><path fill="#d9d9d9" d="M 588.777344 1077.859375 C 564.941406 939.132812 503.835938 824.492188 426.5625 744.160156 C 428.757812 744.949219 430.929688 745.734375 433.101562 746.558594 C 381.050781 721.898438 327.644531 705.558594 274.765625 697.492188 C 325.785156 699.675781 377.578125 707.957031 429.042969 722.390625 C 430.089844 722.152344 431.128906 721.855469 432.191406 721.617188 C 433.347656 722.605469 434.53125 723.597656 435.664062 724.585938 C 519.109375 796.746094 589.898438 902.855469 628.574219 1035.117188 C 615.710938 1050.054688 602.421875 1064.332031 588.777344 1077.859375 " fill-opacity="1" fill-rule="nonzero"/><path fill="#d9d9d9" d="M 752.960938 987.410156 C 822.171875 902.152344 969.515625 907.164062 969.515625 907.164062 C 969.515625 907.164062 1004.515625 1050.46875 935.296875 1135.609375 C 866.027344 1220.832031 718.640625 1215.734375 718.640625 1215.734375 C 718.640625 1215.734375 683.53125 1072.597656 752.960938 987.410156 " fill-opacity="1" fill-rule="nonzero"/><path fill="#d9d9d9" d="M 667.582031 1475.558594 C 672.925781 1297.90625 745.742188 1187.203125 822.851562 1103.710938 C 735.96875 1169.371094 666.496094 1256.285156 635.15625 1423.761719 C 652.359375 1440.425781 649.878906 1461.699219 667.582031 1475.558594 " fill-opacity="1" fill-rule="nonzero"/><path fill="#d9d9d9" d="M 582.824219 773.316406 C 638.03125 705.757812 739.011719 692.480469 836.511719 691.695312 C 734.691406 681.4375 643.640625 686.730469 566.351562 739.519531 C 578.097656 753.214844 569.722656 760.539062 582.824219 773.316406 " fill-opacity="1" fill-rule="nonzero"/><path fill="#d9d9d9" d="M 580.34375 715.980469 C 652.433594 685.207031 719.675781 619.546875 757.730469 525.878906 C 730.84375 636.679688 662.382812 716.355469 587.417969 753.511719 C 585.988281 740.472656 583.585938 727.9375 580.34375 715.980469 " fill-opacity="1" fill-rule="nonzero"/></g></g></g></g></g></g></g></svg>